<?xml version="1.0" standalone="no"?><!DOCTYPE svg PUBLIC "-//W3C//DTD SVG 1.1//EN" "http://www.w3.org/Graphics/SVG/1.1/DTD/svg11.dtd"><svg t="1518418089865" class="icon" style="" viewBox="0 0 1034 1024" version="1.1" xmlns="http://www.w3.org/2000/svg" p-id="1163" xmlns:xlink="http://www.w3.org/1999/xlink" width="201.953125" height="200"><defs><style type="text/css"></style></defs><path d="M956.288 804.48 640 277.472 640 64l32 0c17.6 0 32-14.4 32-32s-14.4-32-32-32L352 0c-17.6 0-32 14.4-32 32s14.4 32 32 32l32 0 0 213.472L67.712 804.48C-4.736 925.216 51.2 1024 192 1024l640 0C972.8 1024 1028.736 925.216 956.288 804.48zM241.024 640 448 295.072 448 64l128 0 0 231.072L782.976 640 241.024 640z" p-id="1164" fill="#ffffff"></path></svg>